<?xml version="1.0" standalone="no"?>
<!DOCTYPE svg PUBLIC "-//W3C//DTD SVG 20010904//EN"
 "http://www.w3.org/TR/2001/REC-SVG-20010904/DTD/svg10.dtd">
<svg version="1.0" xmlns="http://www.w3.org/2000/svg"
 width="72.000000pt" height="72.000000pt" viewBox="0 0 72.000000 72.000000"
 preserveAspectRatio="xMidYMid meet">
<metadata>
Created by potrace 1.11, written by Peter Selinger 2001-2013
</metadata>
<g transform="translate(0.000000,72.000000) scale(0.100000,-0.100000)"
fill="#000000" stroke="none">
<path d="M101 638 c-12 -4 -22 -13 -22 -20 -1 -7 -3 -123 -4 -258 -3 -258 3
-295 43 -288 9 1 23 -1 30 -5 6 -5 12 -5 12 0 0 12 94 10 102 -2 5 -7 8 -7 8
0 0 6 25 10 55 10 30 0 55 -4 55 -10 0 -7 3 -7 8 0 4 6 30 10 57 10 28 0 53
-4 57 -10 5 -7 8 -7 8 0 0 6 24 9 55 8 38 -1 58 3 67 14 19 23 21 515 3 540
-12 16 -38 18 -263 18 -138 1 -259 -2 -271 -7z"/>
</g>
</svg>
